<?xml version="1.0" encoding="utf-8"?>
<!-- Generator: Adobe Illustrator 26.0.2, SVG Export Plug-In . SVG Version: 6.00 Build 0)  -->
<svg version="1.1" id="Layer_1" xmlns="http://www.w3.org/2000/svg" xmlns:xlink="http://www.w3.org/1999/xlink" x="0px" y="0px"
	 viewBox="0 0 21 21" enable-background="new 0 0 21 21" xml:space="preserve">
<g>
	<path id="Path_676_00000149383890835449779780000003285247008589942147_" fill="#FFCB05" d="M17.76,10.12
		c-0.02,0.83-0.7,1.49-1.53,1.47c-0.83-0.02-1.49-0.7-1.47-1.53c0.02-0.82,0.68-1.47,1.5-1.47C17.1,8.6,17.77,9.29,17.76,10.12
		C17.76,10.12,17.76,10.12,17.76,10.12"/>
	<path fill="#483290" d="M17.23,5.85h-0.59V4.41c0-1.79-1.46-3.25-3.25-3.25H3.77c-1.79,0-3.25,1.46-3.25,3.25v3.91h1.5V4.41
		c0-0.96,0.79-1.75,1.75-1.75h9.62c0.96,0,1.75,0.79,1.75,1.75v1.44H5.64v1.5h11.59c0.96,0,1.75,0.79,1.75,1.75v7.5
		c0,0.96-0.79,1.75-1.75,1.75H3.77c-0.96,0-1.75-0.79-1.75-1.75V11.8h-1.5v4.79c0,1.79,1.46,3.25,3.25,3.25h13.46
		c1.79,0,3.25-1.46,3.25-3.25V9.1C20.48,7.3,19.02,5.85,17.23,5.85z"/>
</g>
</svg>
